<?xml version="1.0" encoding="UTF-8" standalone="no"?>
<svg
   xmlns:dc="http://purl.org/dc/elements/1.1/"
   xmlns:cc="http://creativecommons.org/ns#"
   xmlns:rdf="http://www.w3.org/1999/02/22-rdf-syntax-ns#"
   xmlns:svg="http://www.w3.org/2000/svg"
   xmlns="http://www.w3.org/2000/svg"
   xmlns:sodipodi="http://sodipodi.sourceforge.net/DTD/sodipodi-0.dtd"
   xmlns:inkscape="http://www.inkscape.org/namespaces/inkscape"
   width="1536"
   height="1792"
   viewBox="0 0 1536 1792"
   version="1.1"
   id="svg4"
   sodipodi:docname="matrix.svg"
   inkscape:version="0.92.5 (2060ec1f9f, 2020-04-08)">
  <metadata
     id="metadata10">
    <rdf:RDF>
      <cc:Work
         rdf:about="">
        <dc:format>image/svg+xml</dc:format>
        <dc:type
           rdf:resource="http://purl.org/dc/dcmitype/StillImage" />
      </cc:Work>
    </rdf:RDF>
  </metadata>
  <defs
     id="defs8" />
  <sodipodi:namedview
     pagecolor="#ffffff"
     bordercolor="#666666"
     borderopacity="1"
     objecttolerance="10"
     gridtolerance="10"
     guidetolerance="10"
     inkscape:pageopacity="0"
     inkscape:pageshadow="2"
     inkscape:window-width="2160"
     inkscape:window-height="1369"
     id="namedview6"
     showgrid="false"
     inkscape:zoom="0.25"
     inkscape:cx="1237.5048"
     inkscape:cy="1214.0702"
     inkscape:window-x="0"
     inkscape:window-y="1050"
     inkscape:window-maximized="1"
     inkscape:current-layer="svg4" />
  <path
     d="M 3.7073039,3.2220339 V 137.52573 h 9.6628001 v 3.22101 H -7.4613e-4 V 9.8383e-4 H 13.370104 V 3.2220339 Z M 45.010764,45.797634 v 6.79355 h 0.18959 c 1.81338,-2.5983 4.00585,-4.60129 6.55008,-6.00876 2.54415,-1.43457 5.49449,-2.1383 8.79661,-2.1383 3.16678,0 6.06279,0.62263 8.68831,1.84052 2.62541,1.21802 4.60135,3.4105 5.98168,6.49602 1.48865,-2.19239 3.51865,-4.14121 6.06289,-5.81927 2.54423,-1.67809 5.57558,-2.51727 9.06728,-2.51727 2.65254,0 5.1156,0.32484 7.38916,0.97449 2.273566,0.64948 4.195346,1.67814 5.819336,3.11254 1.62389,1.43458 2.86896,3.2751 3.78932,5.57579 0.89313,2.30055 1.3532,5.06132 1.3532,8.30939 v 33.58957 H 94.921454 v -28.44693 c 0,-1.67814 -0.0541,-3.27501 -0.1895,-4.76367 -0.13526,-1.48874 -0.48711,-2.78795 -1.0556,-3.87049 -0.59552,-1.10985 -1.43457,-1.97584 -2.57135,-2.62553 -1.1367,-0.649479 -2.67949,-0.97441 -4.60118,-0.97441 -1.94882,0 -3.51864,0.37889 -4.70958,1.10986 -1.19093,0.75777 -2.13831,1.70508 -2.81491,2.92314 -0.67679,1.19092 -1.13687,2.54413 -1.3534,4.08691 -0.21652,1.51576 -0.35186,3.05859 -0.35186,4.60137 v 27.95975 h -13.77696 v -28.14915 c 0,-1.48874 -0.0269,-2.95025 -0.10812,-4.41197 -0.0542,-1.46151 -0.35187,-2.78778 -0.83907,-4.03278 -0.4872,-1.21807 -1.29915,-2.21958 -2.43602,-2.95025 -1.13678,-0.73084 -2.78788,-1.10986 -5.00729,-1.10986 -0.64948,0 -1.51577,0.13545 -2.57135,0.43306 -1.0556,0.29782 -2.11119,0.83909 -3.11254,1.65121 -1.00153,0.81185 -1.86772,1.97584 -2.57145,3.49143 -0.70373,1.51585 -1.05559,3.51867 -1.05559,5.98169 v 29.12356 H 32.018914 V 45.797634 Z M 137.03695,137.52573 V 3.2220339 h -9.66279 V 9.8383e-4 H 140.745 V 140.74674 h -13.37084 v -3.22101 z"
     id="path2"
     inkscape:connector-curvature="0"
     style="stroke-width:0.09163134" />
</svg>
